<svg width="26" height="20" viewBox="0 0 26 20" fill="none" xmlns="http://www.w3.org/2000/svg">
<g clip-path="url(#clip0_82_49118)">
<path d="M21.3748 1.88574H13.4581C12.7294 1.88574 12.1387 2.50601 12.1387 3.27116V14.3545C12.1387 15.1196 12.7294 15.7399 13.4581 15.7399H21.3748C22.1035 15.7399 22.6942 15.1196 22.6942 14.3545V3.27116C22.6942 2.50601 22.1035 1.88574 21.3748 1.88574Z" stroke="#B3B3B3" stroke-width="2" stroke-linecap="round" stroke-linejoin="round"/>
<path d="M17.4167 12.9684C18.8741 12.9684 20.0556 11.7279 20.0556 10.1976C20.0556 8.6673 18.8741 7.42676 17.4167 7.42676C15.9593 7.42676 14.7778 8.6673 14.7778 10.1976C14.7778 11.7279 15.9593 12.9684 17.4167 12.9684Z" stroke="#B3B3B3" stroke-width="2" stroke-linecap="round" stroke-linejoin="round"/>
<path d="M17.4165 4.65625H17.4231" stroke="#B3B3B3" stroke-width="2" stroke-linecap="round" stroke-linejoin="round"/>
</g>
<path d="M9.896 13.9583H3.16683C2.7469 13.9583 2.34418 13.7915 2.04724 13.4946C1.75031 13.1977 1.5835 12.7949 1.5835 12.375V4.45833C1.5835 4.03841 1.75031 3.63568 2.04724 3.33875C2.34418 3.04181 2.7469 2.875 3.16683 2.875H10.2918" stroke="#B3B3B3" stroke-width="2" stroke-linecap="round" stroke-linejoin="round"/>
<path d="M10.2915 17.125H5.5415" stroke="#B3B3B3" stroke-width="2" stroke-linecap="round" stroke-linejoin="round"/>
<defs>
<clipPath id="clip0_82_49118">
<rect width="15.8333" height="16.625" fill="white" transform="translate(9.5 0.5)"/>
</clipPath>
</defs>
</svg>
