<svg width="122" height="20" viewBox="0 0 122 20" fill="none" xmlns="http://www.w3.org/2000/svg">
<path d="M12.8333 3.54145C12.8333 2.64228 11.7717 2.16645 11.1 2.76311L7.35583 6.09061C7.24155 6.19243 7.09389 6.24876 6.94083 6.24895H3.875C3.37772 6.24895 2.90081 6.44649 2.54917 6.79812C2.19754 7.14975 2 7.62667 2 8.12395V11.8714C2 12.3687 2.19754 12.8456 2.54917 13.1973C2.90081 13.5489 3.37772 13.7464 3.875 13.7464H6.94167C7.09472 13.7466 7.24239 13.803 7.35667 13.9048L11.0992 17.2331C11.7708 17.8298 12.8333 17.3531 12.8333 16.4548V3.54145V3.54145ZM8.1875 7.02478L11.5833 4.00561V15.9906L8.1875 12.9706C7.84432 12.6653 7.40101 12.4966 6.94167 12.4964H3.875C3.70924 12.4964 3.55027 12.4306 3.43306 12.3134C3.31585 12.1962 3.25 12.0372 3.25 11.8714V8.12478C3.25 7.95902 3.31585 7.80005 3.43306 7.68284C3.55027 7.56563 3.70924 7.49978 3.875 7.49978H6.94167C7.40101 7.49966 7.84432 7.33094 8.1875 7.02561V7.02478Z" fill="#B3B3B3"/>
<path d="M16.1601 4.91353C16.2261 4.86473 16.301 4.82939 16.3807 4.80955C16.4603 4.78971 16.5431 4.78575 16.6243 4.7979C16.7054 4.81005 16.7834 4.83807 16.8538 4.88036C16.9241 4.92265 16.9855 4.97838 17.0343 5.04437C18.0969 6.47761 18.6694 8.21516 18.6668 9.99937C18.6691 11.7837 18.0963 13.5212 17.0334 14.9544C16.9327 15.0816 16.7865 15.1648 16.6256 15.1862C16.4647 15.2075 16.3018 15.1655 16.1714 15.0689C16.041 14.9724 15.9532 14.8289 15.9267 14.6688C15.9001 14.5087 15.9369 14.3445 16.0293 14.211C16.9328 12.993 17.4194 11.516 17.4168 9.99937C17.4194 8.48278 16.9328 7.00578 16.0293 5.7877C15.9804 5.72171 15.9451 5.64676 15.9253 5.56711C15.9054 5.48747 15.9015 5.4047 15.9136 5.32352C15.9258 5.24235 15.9538 5.16436 15.9961 5.09401C16.0384 5.02367 16.0941 4.96234 16.1601 4.91353V4.91353Z" fill="#B3B3B3"/>
<path d="M14.6189 6.97502C14.6911 6.93587 14.7703 6.91134 14.8519 6.9028C14.9336 6.89427 15.0161 6.9019 15.0948 6.92527C15.1735 6.94864 15.2468 6.98729 15.3106 7.03901C15.3744 7.09072 15.4273 7.1545 15.4664 7.22668C15.9131 8.05168 16.1664 8.99752 16.1664 10C16.1678 10.9683 15.9272 11.9217 15.4664 12.7733C15.3875 12.9192 15.2539 13.0278 15.095 13.0751C14.936 13.1225 14.7648 13.1048 14.6189 13.0258C14.4731 12.9469 14.3645 12.8133 14.3172 12.6544C14.2698 12.4955 14.2875 12.3242 14.3664 12.1783C14.7164 11.5308 14.9164 10.79 14.9164 10C14.9164 9.21002 14.7164 8.46918 14.3664 7.82168C14.3273 7.74946 14.3028 7.67025 14.2944 7.58856C14.2859 7.50687 14.2936 7.42431 14.317 7.3456C14.3405 7.26689 14.3792 7.19358 14.431 7.12985C14.4828 7.06612 14.5467 7.01322 14.6189 6.97418V6.97502Z" fill="#B3B3B3"/>
<line x1="30.3335" y1="10" x2="119.333" y2="10" stroke="#535353" stroke-width="4" stroke-linecap="round"/>
<line x1="30.3335" y1="10" x2="96.3335" y2="10" stroke="#B3B3B3" stroke-width="4" stroke-linecap="round"/>
</svg>
