<svg width="188" height="48" viewBox="0 0 188 48" fill="none" xmlns="http://www.w3.org/2000/svg">
<path d="M28.9576 0C13.5109 0 0.988281 10.7454 0.988281 24.0001C0.988281 37.2555 13.5109 48 28.9576 48C44.4059 48 56.9272 37.2555 56.9272 24.0001C56.9272 10.7462 44.4059 0.00114638 28.9572 0.00114638L28.9576 0ZM41.7841 34.6151C41.2831 35.3201 40.2077 35.5437 39.3861 35.1109C32.8192 31.6689 24.5523 30.8893 14.8165 32.7981C13.8783 32.9815 12.9431 32.4771 12.7294 31.6718C12.5146 30.8664 13.1001 30.0639 14.0406 29.8805C24.6949 27.7918 33.8338 28.6911 41.2063 32.5573C42.0279 32.9901 42.2885 33.9101 41.7841 34.6151ZM45.2075 28.0801C44.5763 28.9606 43.2336 29.2386 42.2083 28.6969C34.6902 24.7315 23.23 23.5831 14.3375 25.8994C13.1843 26.1983 11.9662 25.6406 11.6162 24.6527C11.2688 23.6631 11.9191 22.6199 13.0704 22.319C23.228 19.6743 35.8558 20.9553 44.4894 25.5079C45.5148 26.0496 45.8388 27.2017 45.2075 28.0804V28.0801ZM45.5014 21.2752C36.487 16.6808 21.6145 16.2583 13.0079 18.4998C11.6259 18.8595 10.1643 18.19 9.74549 17.004C9.32667 15.8175 10.1062 14.5642 11.4893 14.2037C21.369 11.6301 37.7929 12.1273 48.1713 17.4142C49.4171 18.0473 49.8246 19.4249 49.0865 20.4902C48.3517 21.5569 46.7419 21.9086 45.5028 21.2752H45.5014ZM77.0835 22.1556C72.254 21.1674 71.3957 20.4739 71.3957 19.0165C71.3957 17.6397 72.9053 16.7131 75.153 16.7131C77.3306 16.7131 79.4882 17.4167 81.7527 18.8652C81.8195 18.909 81.9063 18.9265 81.9898 18.9151C82.0766 18.9042 82.1501 18.8643 82.2002 18.8044L84.5582 15.9522C84.655 15.8347 84.6283 15.6728 84.4981 15.5831C81.8028 13.728 78.7701 12.826 75.2232 12.826C70.0096 12.826 66.3658 15.5112 66.3658 19.353C66.3658 23.4728 69.5086 24.9316 74.9393 26.0576C79.5584 26.971 80.3399 27.7362 80.3399 29.1038C80.3399 30.6199 78.7635 31.5628 76.2251 31.5628C73.4063 31.5628 71.1051 30.746 68.5334 28.8373C68.4699 28.7886 68.3831 28.7685 68.3029 28.7714C68.2161 28.7771 68.1393 28.8115 68.0858 28.866L65.4406 31.5657C65.3304 31.6803 65.3438 31.8466 65.4707 31.944C68.4632 34.2368 72.1438 35.4462 76.1183 35.4462C81.736 35.4462 85.3664 32.8124 85.3664 28.7341C85.3765 25.293 82.9751 23.3871 77.0935 22.1593L77.0835 22.1556ZM98.0781 18.0687C95.6433 18.0687 93.6461 18.8919 91.9961 20.5785V18.6801C91.9961 18.5302 91.8559 18.4081 91.6822 18.4081H87.357C87.1833 18.4081 87.0431 18.5302 87.0431 18.6801V39.7738C87.0431 39.9229 87.1833 40.0461 87.357 40.0461H91.6822C91.8559 40.0461 91.9961 39.9229 91.9961 39.7738V33.1162C93.6461 34.7011 95.6433 35.4778 98.0781 35.4778C102.604 35.4778 107.186 32.4886 107.186 26.7741C107.193 21.0585 102.61 18.0685 98.0814 18.0685L98.0781 18.0687ZM102.156 26.7741C102.156 29.6828 100.069 31.7147 97.0761 31.7147C94.1203 31.7147 91.8893 29.5911 91.8893 26.7741C91.8893 23.9569 94.1203 21.8338 97.0761 21.8338C100.019 21.8335 102.156 23.9107 102.156 26.7738V26.7741ZM118.926 18.0687C113.098 18.0687 108.532 21.9195 108.532 26.8363C108.532 31.7004 113.068 35.5093 118.856 35.5093C124.704 35.5093 129.283 31.6718 129.283 26.7741C129.283 21.8931 124.734 18.0693 118.926 18.0693V18.0687ZM118.926 31.7434C115.826 31.7434 113.488 29.6054 113.488 26.7727C113.488 23.9271 115.746 21.8621 118.856 21.8621C121.975 21.8621 124.326 23.9993 124.326 26.8349C124.326 29.6799 122.055 31.7434 118.926 31.7434ZM141.727 18.4081H136.968V14.2335C136.968 14.0839 136.828 13.9618 136.654 13.9618H132.329C132.155 13.9618 132.011 14.0839 132.011 14.2335V18.4081H129.934C129.76 18.4081 129.62 18.5302 129.62 18.6801V21.869C129.62 22.0186 129.76 22.141 129.934 22.141H132.011V30.3935C132.011 33.7266 133.945 35.4176 137.763 35.4176C139.312 35.4176 140.598 35.1424 141.811 34.552C141.911 34.5062 141.971 34.4145 141.971 34.317V31.2791C141.971 31.1874 141.914 31.0986 141.821 31.0498C141.727 30.9983 141.61 30.9954 141.513 31.0384C140.682 31.3966 139.877 31.5628 138.975 31.5628C137.589 31.5628 136.968 31.0212 136.968 29.8117V22.1424H141.727C141.901 22.1424 142.041 22.0203 142.041 21.8704V18.6818C142.048 18.5319 141.908 18.4098 141.731 18.4098L141.727 18.4081ZM158.306 18.4244V17.9117C158.306 16.4033 158.981 15.7307 160.491 15.7307C161.393 15.7307 162.117 15.8843 162.929 16.1165C163.029 16.1434 163.133 16.1299 163.213 16.0786C163.296 16.0273 163.343 15.9451 163.343 15.8579V12.7312C163.343 12.6117 163.256 12.5059 163.119 12.4707C162.264 12.252 161.169 12.0276 159.526 12.0276C155.534 12.0276 153.42 13.9575 153.42 17.6068V18.392H151.343C151.169 18.392 151.025 18.5141 151.025 18.6637V21.869C151.025 22.0186 151.169 22.141 151.343 22.141H153.42V34.8673C153.42 35.0192 153.564 35.1396 153.737 35.1396H158.059C158.236 35.1396 158.377 35.0192 158.377 34.8673V22.1419H162.415L168.6 34.8673C167.899 36.2028 167.207 36.4694 166.265 36.4694C165.504 36.4694 164.699 36.2745 163.881 35.8876C163.804 35.8532 163.71 35.8475 163.63 35.8675C163.547 35.8933 163.477 35.9449 163.443 36.0137L161.977 38.7736C161.907 38.9054 161.967 39.0573 162.114 39.1261C163.644 39.8369 165.023 40.1407 166.73 40.1407C169.923 40.1407 171.689 38.8625 173.242 35.429L180.744 18.7958C180.784 18.7122 180.771 18.6176 180.71 18.5433C180.654 18.4697 180.557 18.4253 180.453 18.4253H175.951C175.814 18.4253 175.694 18.4989 175.651 18.6075L171.038 29.9092L165.988 18.6001C165.941 18.4949 165.825 18.4253 165.694 18.4253H158.306V18.4244ZM148.694 18.4081H144.369C144.195 18.4081 144.052 18.5302 144.052 18.6801V34.8673C144.052 35.0192 144.195 35.1396 144.369 35.1396H148.694C148.868 35.1396 149.012 35.0192 149.012 34.8673V18.6812C149.012 18.5313 148.871 18.4092 148.694 18.4092V18.4081ZM146.557 11.0371C144.843 11.0371 143.454 12.2271 143.454 13.697C143.454 15.1678 144.843 16.3592 146.557 16.3592C148.27 16.3592 149.656 15.1678 149.656 13.697C149.656 12.2273 148.267 11.0371 146.557 11.0371ZM184.438 23.613C182.728 23.613 181.395 22.4336 181.395 21.0015C181.395 19.5694 182.744 18.3766 184.455 18.3766C186.165 18.3766 187.497 19.5556 187.497 20.9866C187.497 22.4187 186.148 23.613 184.438 23.613ZM184.455 18.6362C182.895 18.6362 181.716 19.6995 181.716 21.0015C181.716 22.3029 182.888 23.3519 184.438 23.3519C185.998 23.3519 187.177 22.2894 187.177 20.9866C187.177 19.6851 186.004 18.6362 184.455 18.6362ZM185.129 21.2551L185.991 22.2892H185.263L184.488 21.3405H183.823V22.2892H183.215V19.5482H184.638C185.383 19.5482 185.871 19.874 185.871 20.4226C185.874 20.8719 185.57 21.1465 185.133 21.2551H185.129ZM184.615 20.0185H183.823V20.8854H184.615C185.009 20.8854 185.246 20.7195 185.246 20.4515C185.246 20.1695 185.009 20.0185 184.615 20.0185Z" fill="white"/>
</svg>
