<svg width="16" height="17" viewBox="0 0 16 17" fill="none" xmlns="http://www.w3.org/2000/svg">
<path d="M7.81042 17C8.80163 17 9.61263 16.2154 9.61263 15.2564H6.0082C6.0082 16.2154 6.8192 17 7.81042 17ZM13.2171 11.7692V7.41026C13.2171 4.73385 11.7483 2.49333 9.16208 1.90051V1.30769C9.16208 0.584103 8.55833 0 7.81042 0C7.0625 0 6.45876 0.584103 6.45876 1.30769V1.90051C3.88159 2.49333 2.40378 4.72513 2.40378 7.41026V11.7692L0.601562 13.5128V14.3846H15.0193V13.5128L13.2171 11.7692ZM11.4148 12.641H4.20599V7.41026C4.20599 5.24821 5.56666 3.48718 7.81042 3.48718C10.0542 3.48718 11.4148 5.24821 11.4148 7.41026V12.641Z" fill="white"/>
</svg>
