<svg width="25" height="24" viewBox="0 0 25 24" fill="none" xmlns="http://www.w3.org/2000/svg">
<path d="M16.9349 8.70726C16.715 8.48304 16.4539 8.30517 16.1665 8.18381C15.8791 8.06246 15.5711 8 15.2601 8C14.949 8 14.641 8.06246 14.3536 8.18381C14.0662 8.30517 13.8051 8.48304 13.5852 8.70726L13.1288 9.17238L12.6724 8.70726C12.2282 8.25456 11.6257 8.00023 10.9975 8.00023C10.3693 8.00023 9.76686 8.25456 9.32266 8.70726C8.87846 9.15996 8.62891 9.77395 8.62891 10.4142C8.62891 11.0544 8.87846 11.6684 9.32266 12.1211L9.77905 12.5862L13.1288 16L16.4785 12.5862L16.9349 12.1211C17.1549 11.897 17.3295 11.6309 17.4485 11.338C17.5676 11.0451 17.6289 10.7312 17.6289 10.4142C17.6289 10.0971 17.5676 9.78322 17.4485 9.49035C17.3295 9.19747 17.1549 8.93137 16.9349 8.70726Z" fill="#B3B3B3" stroke="#B3B3B3" stroke-width="2" stroke-linecap="round" stroke-linejoin="round"/>
</svg>
