<svg width="21" height="20" viewBox="0 0 21 20" fill="none" xmlns="http://www.w3.org/2000/svg">
<path d="M16.125 11.875L18 13.75L16.125 15.625" stroke="#B3B3B3" stroke-linecap="round" stroke-linejoin="round"/>
<path d="M16.125 4.375L18 6.25L16.125 8.125" stroke="#B3B3B3" stroke-linecap="round" stroke-linejoin="round"/>
<path d="M3 13.75H6.32773C6.84216 13.75 7.34862 13.623 7.80218 13.3803C8.25574 13.1375 8.64236 12.7866 8.92773 12.3586L10.5 10" stroke="#B3B3B3" stroke-linecap="round" stroke-linejoin="round"/>
<path d="M3 6.25H6.32773C6.84216 6.25001 7.34862 6.37701 7.80218 6.61974C8.25574 6.86246 8.64236 7.2134 8.92773 7.64141L12.0723 12.3586C12.3576 12.7866 12.7443 13.1375 13.1978 13.3803C13.6514 13.623 14.1578 13.75 14.6723 13.75H16.75" stroke="#B3B3B3" stroke-linecap="round" stroke-linejoin="round"/>
<path d="M16.75 6.25H14.6723C14.1578 6.25001 13.6514 6.37701 13.1978 6.61974C12.7443 6.86246 12.3576 7.2134 12.0723 7.64141L11.75 8.125" stroke="#B3B3B3" stroke-linecap="round" stroke-linejoin="round"/>
</svg>
