<svg width="14" height="14" viewBox="0 0 14 14" fill="none" xmlns="http://www.w3.org/2000/svg">
<path d="M6.99609 0.5C3.4065 0.5 0.496094 3.41041 0.496094 7C0.496094 8.495 1.0015 9.87327 1.85048 10.9716V11.0711C1.87171 11.0645 1.8916 11.0579 1.91283 11.0499C3.10405 12.5436 4.93864 13.5 6.99609 13.5C9.08671 13.5 10.9465 12.5131 12.1351 10.9809C12.1377 10.9822 12.1391 10.9822 12.1417 10.9836V10.973C12.9907 9.87327 13.4961 8.495 13.4961 7C13.4961 3.41041 10.5857 0.5 6.99609 0.5ZM12.9482 6.72939H9.69956C9.68232 5.97194 9.59211 5.20255 9.42365 4.4199C10.3535 4.30184 11.2397 4.1148 12.0661 3.86806C12.5848 4.7051 12.9018 5.68276 12.9482 6.72939ZM4.83252 6.72939C4.85109 5.97459 4.94395 5.21847 5.11375 4.45306C5.76773 4.52469 6.4416 4.56316 7.1314 4.56316C7.72834 4.56316 8.31334 4.53398 8.88375 4.47959C9.04956 5.23704 9.14109 5.98388 9.15967 6.72939H4.83252ZM9.15967 7.27061C9.13977 8.10367 9.02701 8.93806 8.82273 9.78571C8.27222 9.73531 7.70711 9.70878 7.1314 9.70878C6.46416 9.70878 5.81018 9.74459 5.17609 9.81225C4.96783 8.95531 4.85375 8.11296 4.83252 7.27194H9.15967V7.27061ZM11.7491 3.4051C10.981 3.62265 10.1585 3.78714 9.29895 3.89061C9.06813 3.00714 8.73783 2.1051 8.29742 1.18449C9.69691 1.49622 10.9107 2.3001 11.7491 3.4051ZM6.99609 1.04122C7.22956 1.04122 7.46038 1.05449 7.68722 1.08102C8.15416 2.06531 8.50967 3.0151 8.75507 3.94765C8.22579 3.99541 7.68324 4.01929 7.1314 4.01929C6.48671 4.01929 5.85528 3.98612 5.24375 3.92112C5.48916 2.99653 5.84201 2.05469 6.30497 1.07969C6.53181 1.05582 6.76262 1.04122 6.99609 1.04122ZM5.69477 1.18449C5.25967 2.09449 4.93201 2.98459 4.70385 3.85745C3.8562 3.74204 3.04834 3.56694 2.29487 3.3401C3.12926 2.26827 4.32313 1.48959 5.69477 1.18449ZM1.96987 3.79908C2.78303 4.05643 3.65722 4.25541 4.5765 4.38541C4.40273 5.18 4.3112 5.96133 4.29262 6.72939H1.04395C1.09171 5.65357 1.42599 4.65204 1.96987 3.79908ZM2.12109 10.4251C1.48701 9.52439 1.09701 8.44194 1.04395 7.27061H4.29262C4.31252 8.15541 4.43058 9.02429 4.63487 9.87725C3.7514 10.0006 2.90773 10.185 2.12109 10.4251ZM2.47262 10.8774C3.19558 10.6705 3.9663 10.51 4.77283 10.4026C5.00497 11.2184 5.31405 12.0222 5.69344 12.8142C4.41732 12.5316 3.29507 11.8365 2.47262 10.8774ZM6.30497 12.919C5.88579 12.0368 5.55681 11.1812 5.31671 10.3415C5.90569 10.2818 6.51324 10.2513 7.13273 10.2513C7.66069 10.2513 8.17803 10.2739 8.68477 10.3177C8.44201 11.164 8.11038 12.0276 7.68722 12.919C7.46038 12.9455 7.22956 12.9588 6.99609 12.9588C6.76262 12.9588 6.53181 12.9442 6.30497 12.919ZM8.29742 12.8155C8.68211 12.013 8.99518 11.1985 9.22732 10.3707C10.0471 10.4662 10.8337 10.6174 11.5713 10.8164C10.7449 11.8073 9.6014 12.525 8.29742 12.8155ZM11.9175 10.3601C11.1163 10.1293 10.2607 9.95418 9.36528 9.84408C9.56558 9.00041 9.68099 8.14347 9.69956 7.27061H12.9482C12.8965 8.41408 12.5237 9.47265 11.9175 10.3601Z" fill="white"/>
</svg>
